<?xml version="1.0" encoding="utf-8"?>
<!-- Generator: Adobe Illustrator 18.0.0, SVG Export Plug-In . SVG Version: 6.00 Build 0)  -->
<!DOCTYPE svg PUBLIC "-//W3C//DTD SVG 1.1//EN" "http://www.w3.org/Graphics/SVG/1.1/DTD/svg11.dtd">
<svg version="1.1" id="Layer_1" xmlns="http://www.w3.org/2000/svg" xmlns:xlink="http://www.w3.org/1999/xlink" x="0px" y="0px"
	 viewBox="0 0 131.7 94" enable-background="new 0 0 131.7 94" xml:space="preserve">
<g>
	<path fill="#7CC4DE" d="M43.2,0c17.3,9.8,3.8,36.3-1.5,50.3c-5,13.2-12.6,50.3-33.4,42.6C1.8,90.5-2.1,77.4,1.2,70.4
		C7,57.7,7.9,53.6,5.8,39.3c-1.6-10.8,14.2-9.6,19.7-14c5.7-4.7,8.2-5.5,9-12.7C34.9,8.8,42,5.7,43.2,0"/>
	<g>
		<path fill="#B26464" d="M23.4,38.2l4.3-12.7h3.5l4.3,12.7h-3.3l-0.8-2.6h-4l-0.8,2.6H23.4z M30.7,33.3l-1.3-4.2l-1.3,4.2H30.7z"/>
		<path fill="#B26464" d="M40.2,38.4c-1.2,0-2.1-0.2-2.7-0.8c-0.6-0.5-0.8-1.3-0.8-2.5v-4.5h-1.1v-2.1h1.1v-2.7h3v2.7h2.9v2.1h-2.9
			v3.4c0,0.3,0,0.6,0,0.9c0,0.2,0.1,0.5,0.1,0.7c0.1,0.2,0.2,0.4,0.4,0.5c0.2,0.1,0.5,0.2,0.9,0.2c0.2,0,0.4,0,0.6-0.1
			c0.3-0.1,0.4-0.1,0.5-0.2h0.3v2.1c-0.3,0.1-0.7,0.2-1,0.2S40.7,38.4,40.2,38.4z"/>
		<path fill="#B26464" d="M46.8,38.2h-3V24.9h3V38.2z"/>
		<path fill="#B26464" d="M54.4,37.2c-0.2,0.2-0.4,0.3-0.6,0.5c-0.2,0.1-0.4,0.3-0.7,0.4c-0.3,0.1-0.5,0.2-0.8,0.3
			c-0.3,0.1-0.6,0.1-1.1,0.1c-0.8,0-1.6-0.3-2.1-0.9c-0.6-0.6-0.8-1.3-0.8-2.1c0-0.7,0.1-1.3,0.4-1.7c0.3-0.4,0.7-0.8,1.2-1
			c0.5-0.3,1.2-0.4,1.9-0.5s1.6-0.2,2.4-0.2v-0.1c0-0.5-0.2-0.9-0.6-1.1c-0.4-0.2-1-0.3-1.8-0.3c-0.4,0-0.8,0.1-1.2,0.2
			c-0.5,0.1-0.9,0.3-1.4,0.5h-0.3v-2.3c0.3-0.1,0.8-0.2,1.4-0.3c0.7-0.1,1.3-0.2,2-0.2c1.6,0,2.8,0.3,3.6,0.8s1.1,1.4,1.1,2.5v6.5
			h-3V37.2z M54.4,35.7v-2c-0.5,0.1-0.9,0.1-1.2,0.1c-0.3,0-0.6,0.1-0.9,0.2c-0.3,0.1-0.5,0.2-0.6,0.4c-0.1,0.2-0.2,0.4-0.2,0.7
			c0,0.4,0.1,0.8,0.4,0.9c0.2,0.2,0.6,0.3,1.1,0.3c0.3,0,0.5-0.1,0.8-0.2C53.9,36.1,54.1,35.9,54.4,35.7z"/>
		<path fill="#B26464" d="M62.4,38.4c-0.7,0-1.4-0.1-2-0.2c-0.6-0.2-1.1-0.3-1.6-0.5v-2.5h0.2c0.1,0.1,0.3,0.2,0.5,0.4
			c0.2,0.1,0.4,0.3,0.8,0.4c0.3,0.1,0.6,0.2,0.9,0.3c0.3,0.1,0.7,0.1,1.1,0.1c0.4,0,0.8-0.1,1.1-0.2s0.5-0.3,0.5-0.6
			c0-0.2-0.1-0.4-0.2-0.5c-0.1-0.1-0.4-0.2-0.9-0.3c-0.2-0.1-0.5-0.1-0.9-0.2c-0.3-0.1-0.7-0.1-0.9-0.2c-0.8-0.2-1.3-0.6-1.7-1
			c-0.4-0.5-0.6-1.1-0.6-1.8c0-0.4,0.1-0.8,0.3-1.2c0.2-0.4,0.5-0.7,0.9-1c0.4-0.3,0.9-0.5,1.4-0.7s1.2-0.3,1.9-0.3
			c0.7,0,1.3,0.1,1.9,0.2c0.6,0.1,1,0.3,1.4,0.5v2.4h-0.2c-0.1-0.1-0.3-0.2-0.5-0.3c-0.2-0.1-0.4-0.2-0.6-0.3
			c-0.2-0.1-0.5-0.2-0.8-0.3c-0.3-0.1-0.6-0.1-1-0.1c-0.4,0-0.8,0.1-1.1,0.2c-0.3,0.1-0.4,0.3-0.4,0.6c0,0.2,0.1,0.4,0.2,0.5
			s0.5,0.2,1,0.4c0.3,0.1,0.5,0.1,0.9,0.2c0.3,0.1,0.7,0.1,1,0.2c0.7,0.2,1.2,0.5,1.6,1c0.4,0.4,0.5,1,0.5,1.7
			c0,0.4-0.1,0.9-0.3,1.3c-0.2,0.4-0.5,0.7-0.9,1c-0.4,0.3-0.9,0.5-1.4,0.7C63.9,38.4,63.2,38.4,62.4,38.4z"/>
		<path fill="#B26464" d="M28.7,59.4c-1,0-1.8-0.1-2.6-0.3c-0.7-0.2-1.4-0.4-2.1-0.7v-3h0.3c0.6,0.5,1.3,1,2.1,1.2S28,57,28.7,57
			c0.2,0,0.4,0,0.7-0.1c0.3,0,0.5-0.1,0.7-0.2c0.2-0.1,0.4-0.2,0.6-0.4c0.2-0.2,0.2-0.4,0.2-0.7c0-0.3-0.1-0.6-0.4-0.8
			c-0.3-0.2-0.5-0.3-0.9-0.4c-0.4-0.1-0.9-0.2-1.4-0.3c-0.5-0.1-1-0.2-1.4-0.4c-1-0.3-1.7-0.8-2.1-1.4c-0.4-0.6-0.6-1.3-0.6-2.2
			c0-1.2,0.5-2.2,1.5-2.9s2.3-1.1,3.8-1.1c0.8,0,1.5,0.1,2.3,0.2c0.7,0.2,1.4,0.4,2,0.6V50h-0.3c-0.5-0.4-1-0.7-1.7-1
			c-0.7-0.3-1.4-0.4-2.1-0.4c-0.3,0-0.5,0-0.8,0.1s-0.5,0.1-0.7,0.2c-0.2,0.1-0.4,0.2-0.5,0.4s-0.2,0.4-0.2,0.6
			c0,0.3,0.1,0.6,0.3,0.8c0.2,0.2,0.7,0.4,1.3,0.5c0.4,0.1,0.8,0.2,1.2,0.3c0.4,0.1,0.8,0.2,1.3,0.4c0.9,0.3,1.5,0.7,2,1.3
			c0.4,0.5,0.6,1.2,0.6,2.1c0,1.3-0.5,2.3-1.5,3C31.7,59,30.4,59.4,28.7,59.4z"/>
		<path fill="#B26464" d="M44.8,54.4c0,1.6-0.4,2.8-1.3,3.7c-0.9,0.9-2.1,1.4-3.7,1.4c-1.6,0-2.8-0.5-3.6-1.4
			c-0.9-0.9-1.3-2.1-1.3-3.7c0-1.6,0.4-2.8,1.3-3.7c0.9-0.9,2.1-1.4,3.6-1.4c1.6,0,2.8,0.5,3.6,1.4S44.8,52.8,44.8,54.4z M41.8,54.4
			c0-0.6,0-1-0.1-1.4c-0.1-0.4-0.2-0.7-0.4-0.9c-0.2-0.2-0.4-0.4-0.6-0.5s-0.5-0.1-0.8-0.1c-0.3,0-0.5,0-0.7,0.1
			c-0.2,0.1-0.4,0.2-0.6,0.5c-0.2,0.2-0.3,0.5-0.4,0.9S38,53.8,38,54.4c0,0.6,0,1.1,0.1,1.4c0.1,0.4,0.2,0.6,0.4,0.9
			c0.2,0.2,0.4,0.4,0.6,0.5s0.5,0.2,0.8,0.2c0.2,0,0.5-0.1,0.7-0.2c0.2-0.1,0.4-0.3,0.6-0.5c0.2-0.2,0.3-0.5,0.4-0.9
			C41.7,55.5,41.8,55,41.8,54.4z"/>
		<path fill="#B26464" d="M49.4,59.1h-3V45.9h3V59.1z"/>
		<path fill="#B26464" d="M54.8,48.2h-3.2v-2.3h3.2V48.2z M54.7,59.1h-3v-9.6h3V59.1z"/>
		<path fill="#B26464" d="M65.7,59.1h-3v-1c-0.2,0.2-0.4,0.3-0.7,0.5c-0.2,0.2-0.5,0.3-0.7,0.4c-0.2,0.1-0.5,0.2-0.7,0.3
			c-0.2,0.1-0.5,0.1-0.8,0.1c-1.1,0-2-0.5-2.6-1.4c-0.6-0.9-1-2.1-1-3.6c0-0.8,0.1-1.6,0.3-2.2c0.2-0.6,0.5-1.1,0.9-1.6
			c0.3-0.4,0.8-0.7,1.3-1c0.5-0.2,1-0.4,1.6-0.4c0.5,0,0.9,0.1,1.2,0.2c0.3,0.1,0.7,0.3,1.1,0.5v-4.1h3V59.1z M62.7,56.5v-4.7
			c-0.1-0.1-0.3-0.1-0.6-0.2s-0.4-0.1-0.6-0.1c-0.7,0-1.3,0.2-1.6,0.8c-0.4,0.5-0.5,1.2-0.5,2.1c0,0.9,0.1,1.6,0.4,2
			c0.3,0.4,0.8,0.6,1.4,0.6c0.3,0,0.5-0.1,0.8-0.2C62.2,56.8,62.5,56.7,62.7,56.5z"/>
		<path fill="#B26464" d="M73.2,58.1c-0.2,0.2-0.4,0.3-0.6,0.5c-0.2,0.1-0.4,0.3-0.7,0.4c-0.3,0.1-0.5,0.2-0.8,0.3
			c-0.3,0.1-0.6,0.1-1.1,0.1c-0.8,0-1.6-0.3-2.1-0.9c-0.6-0.6-0.8-1.3-0.8-2.1c0-0.7,0.1-1.3,0.4-1.7c0.3-0.4,0.7-0.8,1.2-1
			c0.5-0.3,1.2-0.4,1.9-0.5s1.6-0.2,2.4-0.2v-0.1c0-0.5-0.2-0.9-0.6-1.1c-0.4-0.2-1-0.3-1.8-0.3c-0.4,0-0.8,0.1-1.2,0.2
			c-0.5,0.1-0.9,0.3-1.4,0.5H68v-2.3c0.3-0.1,0.8-0.2,1.4-0.3c0.7-0.1,1.3-0.2,2-0.2c1.6,0,2.8,0.3,3.6,0.8s1.1,1.4,1.1,2.5v6.5h-3
			V58.1z M73.2,56.6v-2c-0.5,0.1-0.9,0.1-1.2,0.1c-0.3,0-0.6,0.1-0.9,0.2c-0.3,0.1-0.5,0.2-0.6,0.4c-0.1,0.2-0.2,0.4-0.2,0.7
			c0,0.4,0.1,0.8,0.4,0.9c0.2,0.2,0.6,0.3,1.1,0.3c0.3,0,0.5-0.1,0.8-0.2C72.8,57,73,56.9,73.2,56.6z"/>
		<path fill="#B26464" d="M84.9,52.4h-0.2c-0.1,0-0.3-0.1-0.5-0.1c-0.2,0-0.5,0-0.7,0c-0.3,0-0.6,0-1,0.1c-0.3,0.1-0.7,0.2-1,0.3
			v6.4h-3v-9.6h3v1.4c0.1-0.1,0.3-0.3,0.6-0.5s0.5-0.3,0.7-0.5c0.2-0.1,0.5-0.2,0.8-0.3c0.3-0.1,0.6-0.1,0.8-0.1c0.1,0,0.2,0,0.3,0
			c0.1,0,0.2,0,0.3,0V52.4z"/>
		<path fill="#B26464" d="M89.1,48.2h-3.2v-2.3h3.2V48.2z M89,59.1h-3v-9.6h3V59.1z"/>
		<path fill="#B26464" d="M94.9,59.3c-1.2,0-2.1-0.2-2.7-0.8c-0.6-0.5-0.8-1.3-0.8-2.5v-4.5h-1.1v-2.1h1.1v-2.7h3v2.7h2.9v2.1h-2.9
			V55c0,0.3,0,0.6,0,0.9c0,0.2,0.1,0.5,0.1,0.7c0.1,0.2,0.2,0.4,0.4,0.5c0.2,0.1,0.5,0.2,0.9,0.2c0.2,0,0.4,0,0.6-0.1
			c0.3-0.1,0.4-0.1,0.5-0.2h0.3V59c-0.3,0.1-0.7,0.2-1,0.2S95.5,59.3,94.9,59.3z"/>
		<path fill="#B26464" d="M103.4,59.4c-1.8,0-3.2-0.4-4.2-1.3c-1-0.9-1.4-2.1-1.4-3.7c0-1.6,0.4-2.8,1.3-3.7
			c0.9-0.9,2.2-1.4,3.8-1.4c1.5,0,2.6,0.4,3.3,1.2c0.7,0.8,1.1,1.9,1.1,3.4v1.1h-6.5c0,0.4,0.1,0.8,0.3,1.1c0.2,0.3,0.4,0.5,0.6,0.7
			c0.3,0.2,0.6,0.3,0.9,0.4c0.3,0.1,0.7,0.1,1.1,0.1c0.3,0,0.7,0,1-0.1s0.6-0.2,0.9-0.3c0.2-0.1,0.5-0.2,0.7-0.3
			c0.2-0.1,0.4-0.2,0.5-0.3h0.3v2.5c-0.2,0.1-0.5,0.2-0.7,0.3s-0.5,0.2-0.8,0.3c-0.3,0.1-0.7,0.2-1,0.2
			C104.3,59.4,103.9,59.4,103.4,59.4z M104.4,53.1c0-0.6-0.2-1.1-0.4-1.4c-0.3-0.3-0.7-0.5-1.3-0.5c-0.6,0-1,0.2-1.4,0.5
			c-0.3,0.3-0.5,0.8-0.5,1.4H104.4z M105.7,44.8l-2.6,3.4h-2l1.8-3.4H105.7z"/>
		<path fill="#B26464" d="M37.7,80.1h-3.2v-8.4l-2.3,5.4h-2.2l-2.3-5.4v8.4h-3V67.4h3.7l2.8,6.3l2.8-6.3h3.7V80.1z"/>
		<path fill="#B26464" d="M45.5,79.1c-0.2,0.2-0.4,0.3-0.6,0.5c-0.2,0.1-0.4,0.3-0.7,0.4c-0.3,0.1-0.5,0.2-0.8,0.3
			c-0.3,0.1-0.6,0.1-1.1,0.1c-0.8,0-1.6-0.3-2.1-0.9c-0.6-0.6-0.8-1.3-0.8-2.1c0-0.7,0.1-1.3,0.4-1.7c0.3-0.4,0.7-0.8,1.2-1
			c0.5-0.3,1.2-0.4,1.9-0.5s1.6-0.2,2.4-0.2v-0.1c0-0.5-0.2-0.9-0.6-1.1c-0.4-0.2-1-0.3-1.8-0.3c-0.4,0-0.8,0.1-1.2,0.2
			c-0.5,0.1-0.9,0.3-1.4,0.5h-0.3v-2.3c0.3-0.1,0.8-0.2,1.4-0.3c0.7-0.1,1.3-0.2,2-0.2c1.6,0,2.8,0.3,3.6,0.8s1.1,1.4,1.1,2.5v6.5
			h-3V79.1z M45.5,77.6v-2c-0.5,0.1-0.9,0.1-1.2,0.1c-0.3,0-0.6,0.1-0.9,0.2c-0.3,0.1-0.5,0.2-0.6,0.4c-0.1,0.2-0.2,0.4-0.2,0.7
			c0,0.4,0.1,0.8,0.4,0.9c0.2,0.2,0.6,0.3,1.1,0.3c0.3,0,0.5-0.1,0.8-0.2C45,78,45.2,77.8,45.5,77.6z"/>
		<path fill="#B26464" d="M59.4,80.1h-3v-1c-0.2,0.2-0.4,0.3-0.7,0.5c-0.2,0.2-0.5,0.3-0.7,0.4c-0.2,0.1-0.5,0.2-0.7,0.3
			c-0.2,0.1-0.5,0.1-0.8,0.1c-1.1,0-2-0.5-2.6-1.4c-0.6-0.9-1-2.1-1-3.6c0-0.8,0.1-1.6,0.3-2.2c0.2-0.6,0.5-1.1,0.9-1.6
			c0.3-0.4,0.8-0.7,1.3-1c0.5-0.2,1-0.4,1.6-0.4c0.5,0,0.9,0.1,1.2,0.2c0.3,0.1,0.7,0.3,1.1,0.5v-4.1h3V80.1z M56.4,77.5v-4.7
			c-0.1-0.1-0.3-0.1-0.6-0.2s-0.4-0.1-0.6-0.1c-0.7,0-1.3,0.2-1.6,0.8c-0.4,0.5-0.5,1.2-0.5,2.1c0,0.9,0.1,1.6,0.4,2
			c0.3,0.4,0.8,0.6,1.4,0.6c0.3,0,0.5-0.1,0.8-0.2C55.9,77.8,56.1,77.6,56.4,77.5z"/>
		<path fill="#B26464" d="M66.9,79.1c-0.2,0.2-0.4,0.3-0.6,0.5c-0.2,0.1-0.4,0.3-0.7,0.4c-0.3,0.1-0.5,0.2-0.8,0.3
			c-0.3,0.1-0.6,0.1-1.1,0.1c-0.8,0-1.6-0.3-2.1-0.9c-0.6-0.6-0.8-1.3-0.8-2.1c0-0.7,0.1-1.3,0.4-1.7c0.3-0.4,0.7-0.8,1.2-1
			c0.5-0.3,1.2-0.4,1.9-0.5s1.6-0.2,2.4-0.2v-0.1c0-0.5-0.2-0.9-0.6-1.1c-0.4-0.2-1-0.3-1.8-0.3c-0.4,0-0.8,0.1-1.2,0.2
			c-0.5,0.1-0.9,0.3-1.4,0.5h-0.3v-2.3c0.3-0.1,0.8-0.2,1.4-0.3c0.7-0.1,1.3-0.2,2-0.2c1.6,0,2.8,0.3,3.6,0.8s1.1,1.4,1.1,2.5v6.5
			h-3V79.1z M66.9,77.6v-2c-0.5,0.1-0.9,0.1-1.2,0.1c-0.3,0-0.6,0.1-0.9,0.2c-0.3,0.1-0.5,0.2-0.6,0.4c-0.1,0.2-0.2,0.4-0.2,0.7
			c0,0.4,0.1,0.8,0.4,0.9c0.2,0.2,0.6,0.3,1.1,0.3c0.3,0,0.5-0.1,0.8-0.2C66.4,78,66.7,77.8,66.9,77.6z"/>
		<path fill="#B26464" d="M80.8,79c0,0.9-0.1,1.6-0.4,2.3s-0.6,1.1-1,1.5c-0.4,0.4-1,0.6-1.6,0.8c-0.6,0.2-1.3,0.2-2.1,0.2
			c-0.6,0-1.2,0-1.8-0.1c-0.6-0.1-1.1-0.2-1.5-0.3v-2.4h0.3c0.1,0.1,0.3,0.1,0.5,0.2s0.4,0.1,0.6,0.2c0.2,0.1,0.5,0.1,0.7,0.2
			c0.2,0,0.5,0.1,0.7,0.1c0.5,0,0.9-0.1,1.3-0.2c0.3-0.1,0.6-0.3,0.8-0.4c0.2-0.2,0.3-0.4,0.4-0.7c0.1-0.3,0.1-0.6,0.1-1V79
			c-0.3,0.3-0.7,0.5-1.2,0.7c-0.4,0.2-0.9,0.3-1.4,0.3c-1.2,0-2.2-0.4-2.9-1.2c-0.7-0.8-1-2-1-3.7c0-0.8,0.1-1.4,0.3-2
			c0.2-0.6,0.5-1.1,0.9-1.5c0.4-0.4,0.8-0.7,1.3-0.9c0.5-0.2,1-0.3,1.6-0.3c0.5,0,0.9,0.1,1.3,0.2c0.4,0.1,0.7,0.3,1.1,0.5l0.1-0.4
			h2.9V79z M77.8,77.1v-4.3c-0.1-0.1-0.3-0.1-0.5-0.2c-0.2,0-0.4-0.1-0.6-0.1c-0.7,0-1.3,0.2-1.6,0.7s-0.5,1.1-0.5,1.9
			c0,0.4,0,0.8,0.1,1.1s0.2,0.5,0.3,0.8c0.1,0.2,0.3,0.4,0.6,0.5c0.2,0.1,0.5,0.2,0.9,0.2c0.3,0,0.5,0,0.8-0.1
			C77.3,77.4,77.6,77.2,77.8,77.1z"/>
		<path fill="#B26464" d="M88.4,79.1c-0.2,0.2-0.4,0.3-0.6,0.5c-0.2,0.1-0.4,0.3-0.7,0.4c-0.3,0.1-0.5,0.2-0.8,0.3
			c-0.3,0.1-0.6,0.1-1.1,0.1c-0.8,0-1.6-0.3-2.1-0.9c-0.6-0.6-0.8-1.3-0.8-2.1c0-0.7,0.1-1.3,0.4-1.7c0.3-0.4,0.7-0.8,1.2-1
			c0.5-0.3,1.2-0.4,1.9-0.5s1.6-0.2,2.4-0.2v-0.1c0-0.5-0.2-0.9-0.6-1.1c-0.4-0.2-1-0.3-1.8-0.3c-0.4,0-0.8,0.1-1.2,0.2
			c-0.5,0.1-0.9,0.3-1.4,0.5h-0.3v-2.3c0.3-0.1,0.8-0.2,1.4-0.3c0.7-0.1,1.3-0.2,2-0.2c1.6,0,2.8,0.3,3.6,0.8s1.1,1.4,1.1,2.5v6.5
			h-3V79.1z M88.4,77.6v-2c-0.5,0.1-0.9,0.1-1.2,0.1c-0.3,0-0.6,0.1-0.9,0.2c-0.3,0.1-0.5,0.2-0.6,0.4c-0.1,0.2-0.2,0.4-0.2,0.7
			c0,0.4,0.1,0.8,0.4,0.9c0.2,0.2,0.6,0.3,1.1,0.3c0.3,0,0.5-0.1,0.8-0.2C87.9,78,88.1,77.8,88.4,77.6z"/>
		<path fill="#B26464" d="M96.5,80.4c-0.7,0-1.4-0.1-2-0.2c-0.6-0.2-1.1-0.3-1.6-0.5v-2.5h0.2c0.1,0.1,0.3,0.2,0.5,0.4
			c0.2,0.1,0.4,0.3,0.8,0.4c0.3,0.1,0.6,0.2,0.9,0.3c0.3,0.1,0.7,0.1,1.1,0.1c0.4,0,0.8-0.1,1.1-0.2s0.5-0.3,0.5-0.6
			c0-0.2-0.1-0.4-0.2-0.5c-0.1-0.1-0.4-0.2-0.9-0.3c-0.2-0.1-0.5-0.1-0.9-0.2c-0.3-0.1-0.7-0.1-0.9-0.2c-0.8-0.2-1.3-0.6-1.7-1
			c-0.4-0.5-0.6-1.1-0.6-1.8c0-0.4,0.1-0.8,0.3-1.2c0.2-0.4,0.5-0.7,0.9-1c0.4-0.3,0.9-0.5,1.4-0.7s1.2-0.3,1.9-0.3
			c0.7,0,1.3,0.1,1.9,0.2c0.6,0.1,1,0.3,1.4,0.5v2.4h-0.2c-0.1-0.1-0.3-0.2-0.5-0.3c-0.2-0.1-0.4-0.2-0.6-0.3
			c-0.2-0.1-0.5-0.2-0.8-0.3c-0.3-0.1-0.6-0.1-1-0.1c-0.4,0-0.8,0.1-1.1,0.2c-0.3,0.1-0.4,0.3-0.4,0.6c0,0.2,0.1,0.4,0.2,0.5
			s0.5,0.2,1,0.4c0.3,0.1,0.5,0.1,0.9,0.2c0.3,0.1,0.7,0.1,1,0.2c0.7,0.2,1.2,0.5,1.6,1c0.4,0.4,0.5,1,0.5,1.7
			c0,0.4-0.1,0.9-0.3,1.3c-0.2,0.4-0.5,0.7-0.9,1c-0.4,0.3-0.9,0.5-1.4,0.7C97.9,80.3,97.2,80.4,96.5,80.4z"/>
		<path fill="#B26464" d="M107.2,80.4c-0.8,0-1.5-0.1-2.2-0.3c-0.7-0.2-1.2-0.5-1.7-0.9c-0.5-0.4-0.9-0.9-1.1-1.6
			c-0.3-0.6-0.4-1.4-0.4-2.2c0-0.9,0.1-1.7,0.4-2.3s0.7-1.2,1.2-1.6c0.5-0.4,1-0.7,1.7-0.9c0.6-0.2,1.3-0.3,2-0.3
			c0.5,0,1.1,0.1,1.6,0.2c0.5,0.1,1.1,0.3,1.6,0.6v2.6h-0.4c-0.1-0.1-0.3-0.2-0.4-0.4c-0.2-0.1-0.4-0.3-0.6-0.4
			c-0.2-0.1-0.5-0.2-0.7-0.3c-0.3-0.1-0.6-0.1-0.9-0.1c-0.8,0-1.4,0.3-1.8,0.8c-0.4,0.5-0.6,1.2-0.6,2.1c0,1,0.2,1.7,0.7,2.1
			c0.4,0.5,1,0.7,1.8,0.7c0.4,0,0.7,0,1-0.1c0.3-0.1,0.5-0.2,0.7-0.3c0.2-0.1,0.4-0.2,0.5-0.4c0.1-0.1,0.3-0.2,0.4-0.3h0.4v2.6
			c-0.2,0.1-0.4,0.2-0.6,0.3c-0.2,0.1-0.5,0.2-0.7,0.2c-0.3,0.1-0.6,0.1-0.8,0.2C108,80.3,107.6,80.4,107.2,80.4z"/>
		<path fill="#B26464" d="M117,79.1c-0.2,0.2-0.4,0.3-0.6,0.5c-0.2,0.1-0.4,0.3-0.7,0.4c-0.3,0.1-0.5,0.2-0.8,0.3
			c-0.3,0.1-0.6,0.1-1.1,0.1c-0.8,0-1.6-0.3-2.1-0.9c-0.6-0.6-0.8-1.3-0.8-2.1c0-0.7,0.1-1.3,0.4-1.7c0.3-0.4,0.7-0.8,1.2-1
			c0.5-0.3,1.2-0.4,1.9-0.5s1.6-0.2,2.4-0.2v-0.1c0-0.5-0.2-0.9-0.6-1.1c-0.4-0.2-1-0.3-1.8-0.3c-0.4,0-0.8,0.1-1.2,0.2
			c-0.5,0.1-0.9,0.3-1.4,0.5h-0.3v-2.3c0.3-0.1,0.8-0.2,1.4-0.3c0.7-0.1,1.3-0.2,2-0.2c1.6,0,2.8,0.3,3.6,0.8s1.1,1.4,1.1,2.5v6.5
			h-3V79.1z M117,77.6v-2c-0.5,0.1-0.9,0.1-1.2,0.1c-0.3,0-0.6,0.1-0.9,0.2c-0.3,0.1-0.5,0.2-0.6,0.4c-0.1,0.2-0.2,0.4-0.2,0.7
			c0,0.4,0.1,0.8,0.4,0.9c0.2,0.2,0.6,0.3,1.1,0.3c0.3,0,0.5-0.1,0.8-0.2C116.6,78,116.8,77.8,117,77.6z"/>
		<path fill="#B26464" d="M128.6,73.3h-0.2c-0.1,0-0.3-0.1-0.5-0.1c-0.2,0-0.5,0-0.7,0c-0.3,0-0.6,0-1,0.1c-0.3,0.1-0.7,0.2-1,0.3
			v6.4h-3v-9.6h3v1.4c0.1-0.1,0.3-0.3,0.6-0.5s0.5-0.3,0.7-0.5c0.2-0.1,0.5-0.2,0.8-0.3c0.3-0.1,0.6-0.1,0.8-0.1c0.1,0,0.2,0,0.3,0
			c0.1,0,0.2,0,0.3,0V73.3z"/>
	</g>
</g>
</svg>
