<?xml version="1.0" encoding="utf-8"?>
<!-- Generator: Adobe Illustrator 18.0.0, SVG Export Plug-In . SVG Version: 6.00 Build 0)  -->
<!DOCTYPE svg PUBLIC "-//W3C//DTD SVG 1.1//EN" "http://www.w3.org/Graphics/SVG/1.1/DTD/svg11.dtd">
<svg version="1.1" id="Layer_1" xmlns="http://www.w3.org/2000/svg" xmlns:xlink="http://www.w3.org/1999/xlink" x="0px" y="0px"
	 viewBox="0 0 558 94" enable-background="new 0 0 558 94" xml:space="preserve">
<g>
	<path fill="#7CC4DE" d="M43.2,0c17.3,9.8,3.8,36.3-1.5,50.3c-5,13.2-12.6,50.3-33.4,42.6C1.8,90.5-2.1,77.4,1.2,70.4
		C7,57.7,7.9,53.6,5.8,39.3c-1.6-10.8,14.2-9.6,19.7-14c5.7-4.7,8.2-5.5,9-12.7C34.9,8.8,42,5.7,43.2,0"/>
	<g>
		<path fill="#B26464" d="M19.3,75.2l9.3-27.6h7.6l9.3,27.6h-7.1l-1.7-5.6H28l-1.7,5.6H19.3z M35.2,64.5l-2.8-9.1l-2.8,9.1H35.2z"/>
		<path fill="#B26464" d="M55.9,75.6c-2.6,0-4.6-0.5-5.8-1.6c-1.2-1.1-1.8-2.9-1.8-5.3v-9.7h-2.5v-4.5h2.5v-6h6.5v6h6.3v4.5h-6.3
			v7.4c0,0.7,0,1.4,0,1.9c0,0.5,0.1,1,0.3,1.5c0.2,0.4,0.5,0.8,0.9,1c0.4,0.3,1.1,0.4,1.9,0.4c0.3,0,0.8-0.1,1.4-0.2
			c0.6-0.1,1-0.3,1.2-0.4h0.6V75c-0.7,0.2-1.5,0.3-2.2,0.4C58,75.5,57.1,75.6,55.9,75.6z"/>
		<path fill="#B26464" d="M70.2,75.2h-6.5V46.3h6.5V75.2z"/>
		<path fill="#B26464" d="M86.7,73c-0.4,0.4-0.8,0.7-1.2,1s-0.8,0.6-1.4,0.9c-0.6,0.3-1.1,0.5-1.7,0.6c-0.6,0.1-1.3,0.2-2.3,0.2
			c-1.8,0-3.4-0.6-4.6-1.9c-1.2-1.2-1.8-2.8-1.8-4.7c0-1.5,0.3-2.8,0.9-3.7c0.6-1,1.5-1.7,2.7-2.3c1.2-0.6,2.6-1,4.2-1.2
			s3.4-0.4,5.3-0.5v-0.1c0-1.2-0.4-1.9-1.3-2.4c-0.8-0.4-2.1-0.7-3.8-0.7c-0.8,0-1.7,0.1-2.7,0.4c-1,0.3-2,0.6-3,1.1h-0.6v-5
			c0.6-0.2,1.7-0.4,3.1-0.7c1.4-0.3,2.9-0.4,4.3-0.4c3.6,0,6.2,0.6,7.8,1.8c1.6,1.2,2.5,3,2.5,5.5v14.2h-6.5V73z M86.7,69.7v-4.3
			c-1.1,0.1-2,0.2-2.7,0.3c-0.7,0.1-1.3,0.2-2,0.5c-0.6,0.2-1,0.5-1.3,0.9c-0.3,0.4-0.5,0.9-0.5,1.6c0,1,0.3,1.6,0.8,2
			c0.5,0.4,1.3,0.5,2.3,0.5c0.6,0,1.2-0.1,1.7-0.4S86.2,70.2,86.7,69.7z"/>
		<path fill="#B26464" d="M104.3,75.8c-1.5,0-3-0.2-4.4-0.5c-1.4-0.3-2.5-0.7-3.4-1.2v-5.5h0.5c0.3,0.2,0.7,0.5,1.1,0.8
			c0.4,0.3,0.9,0.6,1.7,0.9c0.6,0.3,1.3,0.5,2.1,0.7s1.6,0.3,2.5,0.3c0.9,0,1.7-0.1,2.4-0.4c0.7-0.3,1-0.7,1-1.4
			c0-0.5-0.2-0.8-0.5-1.1c-0.3-0.2-0.9-0.5-1.9-0.7c-0.5-0.1-1.1-0.3-1.9-0.4c-0.8-0.1-1.4-0.3-2-0.5c-1.6-0.5-2.9-1.3-3.7-2.3
			c-0.8-1-1.2-2.3-1.2-3.9c0-0.9,0.2-1.8,0.6-2.6c0.4-0.8,1.1-1.6,1.9-2.2c0.8-0.6,1.9-1.1,3.1-1.5c1.2-0.4,2.6-0.6,4.1-0.6
			c1.5,0,2.8,0.1,4,0.4c1.2,0.3,2.3,0.6,3.1,1v5.3H113c-0.2-0.2-0.6-0.4-1.1-0.7c-0.5-0.3-1-0.5-1.4-0.8c-0.5-0.2-1.2-0.5-1.8-0.6
			c-0.7-0.2-1.4-0.2-2.1-0.2c-0.9,0-1.7,0.2-2.4,0.5c-0.6,0.3-1,0.7-1,1.3c0,0.5,0.2,0.8,0.5,1.1c0.3,0.3,1,0.5,2.1,0.8
			c0.6,0.1,1.2,0.3,1.9,0.4s1.4,0.3,2.1,0.5c1.5,0.5,2.6,1.2,3.4,2.1c0.8,0.9,1.2,2.2,1.2,3.7c0,1-0.2,1.9-0.7,2.8
			c-0.5,0.9-1.1,1.6-1.9,2.2c-0.9,0.7-1.9,1.2-3.1,1.5S106,75.8,104.3,75.8z"/>
		<path fill="#B26464" d="M137.5,75.7c-2.1,0-4-0.2-5.6-0.6c-1.6-0.4-3.1-0.9-4.5-1.5V67h0.6c1.4,1.2,2.9,2.1,4.6,2.7
			s3.3,0.9,4.9,0.9c0.4,0,0.9,0,1.6-0.1c0.6-0.1,1.2-0.2,1.6-0.4c0.5-0.2,0.9-0.5,1.2-0.9c0.3-0.4,0.5-0.9,0.5-1.5
			c0-0.7-0.3-1.3-0.8-1.7c-0.5-0.4-1.2-0.7-1.9-0.9c-0.9-0.2-1.9-0.5-3-0.7c-1.1-0.2-2.1-0.5-3-0.8c-2.1-0.8-3.7-1.8-4.6-3
			c-0.9-1.3-1.4-2.9-1.4-4.8c0-2.6,1.1-4.7,3.3-6.3c2.2-1.6,4.9-2.4,8.2-2.4c1.6,0,3.3,0.2,4.9,0.5c1.6,0.3,3.1,0.8,4.4,1.4v6.3
			h-0.6c-1-0.9-2.3-1.6-3.8-2.2c-1.5-0.6-3-0.9-4.6-0.9c-0.6,0-1.2,0-1.6,0.1c-0.5,0.1-1,0.3-1.5,0.5c-0.4,0.2-0.8,0.5-1.1,0.9
			s-0.5,0.8-0.5,1.3c0,0.7,0.3,1.3,0.8,1.7c0.5,0.4,1.5,0.8,2.9,1.1c0.9,0.2,1.8,0.4,2.7,0.6c0.9,0.2,1.8,0.5,2.8,0.8
			c1.9,0.7,3.3,1.6,4.3,2.8c0.9,1.2,1.4,2.7,1.4,4.6c0,2.7-1.1,5-3.2,6.6C144.1,74.8,141.2,75.7,137.5,75.7z"/>
		<path fill="#B26464" d="M172.7,64.8c0,3.4-0.9,6.1-2.8,8.1c-1.9,2-4.5,3-8,3c-3.4,0-6-1-7.9-3c-1.9-2-2.8-4.7-2.8-8.1
			c0-3.5,0.9-6.2,2.8-8.1c1.9-2,4.5-2.9,7.9-2.9c3.4,0,6.1,1,7.9,3C171.8,58.6,172.7,61.3,172.7,64.8z M166,64.8
			c0-1.2-0.1-2.3-0.3-3.1c-0.2-0.8-0.5-1.5-0.8-2c-0.4-0.5-0.8-0.9-1.3-1.1s-1-0.3-1.7-0.3c-0.6,0-1.1,0.1-1.6,0.3
			c-0.5,0.2-0.9,0.5-1.3,1c-0.4,0.5-0.7,1.1-0.9,2c-0.2,0.8-0.3,1.9-0.3,3.2c0,1.3,0.1,2.3,0.3,3.1c0.2,0.8,0.5,1.4,0.8,1.9
			c0.3,0.5,0.8,0.8,1.3,1.1s1.1,0.3,1.7,0.3c0.5,0,1-0.1,1.6-0.3s1-0.6,1.3-1c0.4-0.5,0.7-1.2,0.9-1.9C165.9,67.2,166,66.1,166,64.8
			z"/>
		<path fill="#B26464" d="M182.7,75.2h-6.5V46.3h6.5V75.2z"/>
		<path fill="#B26464" d="M194.3,51.4h-6.9v-5.1h6.9V51.4z M194.1,75.2h-6.5V54.3h6.5V75.2z"/>
		<path fill="#B26464" d="M218,75.2h-6.5V73c-0.4,0.3-0.9,0.7-1.4,1.1c-0.5,0.4-1,0.7-1.4,0.9c-0.5,0.2-1,0.4-1.5,0.6
			c-0.5,0.1-1.1,0.2-1.8,0.2c-2.4,0-4.3-1-5.6-3c-1.4-2-2.1-4.6-2.1-7.9c0-1.8,0.2-3.4,0.7-4.7c0.5-1.3,1.1-2.5,1.9-3.5
			c0.8-0.9,1.7-1.6,2.7-2.1c1.1-0.5,2.2-0.8,3.4-0.8c1.1,0,2,0.1,2.7,0.3c0.7,0.2,1.5,0.6,2.4,1.1v-8.9h6.5V75.2z M211.5,69.4V59.2
			c-0.3-0.2-0.7-0.3-1.3-0.4c-0.5-0.1-1-0.2-1.3-0.2c-1.6,0-2.7,0.5-3.5,1.6c-0.8,1.1-1.2,2.6-1.2,4.6c0,2.1,0.3,3.5,0.9,4.5
			c0.6,0.9,1.6,1.4,3,1.4c0.6,0,1.1-0.1,1.7-0.3C210.5,70.1,211.1,69.8,211.5,69.4z"/>
		<path fill="#B26464" d="M234.5,73c-0.4,0.4-0.8,0.7-1.2,1s-0.8,0.6-1.4,0.9c-0.6,0.3-1.1,0.5-1.7,0.6c-0.6,0.1-1.3,0.2-2.3,0.2
			c-1.8,0-3.4-0.6-4.6-1.9c-1.2-1.2-1.8-2.8-1.8-4.7c0-1.5,0.3-2.8,0.9-3.7c0.6-1,1.5-1.7,2.7-2.3c1.2-0.6,2.6-1,4.2-1.2
			s3.4-0.4,5.3-0.5v-0.1c0-1.2-0.4-1.9-1.3-2.4c-0.8-0.4-2.1-0.7-3.8-0.7c-0.8,0-1.7,0.1-2.7,0.4c-1,0.3-2,0.6-3,1.1h-0.6v-5
			c0.6-0.2,1.7-0.4,3.1-0.7c1.4-0.3,2.9-0.4,4.3-0.4c3.6,0,6.2,0.6,7.8,1.8c1.6,1.2,2.5,3,2.5,5.5v14.2h-6.5V73z M234.5,69.7v-4.3
			c-1.1,0.1-2,0.2-2.7,0.3c-0.7,0.1-1.3,0.2-2,0.5c-0.6,0.2-1,0.5-1.3,0.9c-0.3,0.4-0.5,0.9-0.5,1.6c0,1,0.3,1.6,0.8,2
			c0.5,0.4,1.3,0.5,2.3,0.5c0.6,0,1.2-0.1,1.7-0.4S234,70.2,234.5,69.7z"/>
		<path fill="#B26464" d="M259.7,60.5h-0.5c-0.2-0.1-0.6-0.2-1.1-0.2c-0.5,0-1-0.1-1.6-0.1c-0.7,0-1.4,0.1-2.1,0.3
			c-0.7,0.2-1.5,0.4-2.2,0.7v14h-6.5V54.3h6.5v3c0.3-0.3,0.7-0.6,1.2-1c0.5-0.4,1-0.7,1.4-1c0.5-0.3,1-0.5,1.6-0.7
			c0.6-0.2,1.2-0.3,1.8-0.3c0.2,0,0.4,0,0.7,0c0.3,0,0.5,0,0.7,0.1V60.5z"/>
		<path fill="#B26464" d="M268.9,51.4H262v-5.1h6.9V51.4z M268.7,75.2h-6.5V54.3h6.5V75.2z"/>
		<path fill="#B26464" d="M281.7,75.6c-2.6,0-4.6-0.5-5.8-1.6c-1.2-1.1-1.8-2.9-1.8-5.3v-9.7h-2.5v-4.5h2.5v-6h6.5v6h6.3v4.5h-6.3
			v7.4c0,0.7,0,1.4,0,1.9c0,0.5,0.1,1,0.3,1.5c0.2,0.4,0.5,0.8,0.9,1c0.4,0.3,1.1,0.4,1.9,0.4c0.3,0,0.8-0.1,1.4-0.2
			c0.6-0.1,1-0.3,1.2-0.4h0.6V75c-0.7,0.2-1.5,0.3-2.2,0.4C283.8,75.5,282.8,75.6,281.7,75.6z"/>
		<path fill="#B26464" d="M300.2,75.7c-3.9,0-6.9-0.9-9-2.8c-2.1-1.9-3.1-4.6-3.1-8c0-3.4,1-6.1,2.9-8.1c2-2,4.7-3,8.2-3
			c3.2,0,5.6,0.9,7.2,2.6c1.6,1.7,2.4,4.2,2.4,7.4V66h-14.2c0.1,1,0.3,1.8,0.6,2.4c0.3,0.6,0.8,1.2,1.4,1.5c0.6,0.4,1.2,0.7,1.9,0.8
			s1.6,0.3,2.4,0.3c0.8,0,1.5-0.1,2.2-0.3c0.7-0.2,1.4-0.4,2-0.7c0.5-0.2,1-0.5,1.5-0.8c0.5-0.3,0.8-0.5,1.1-0.7h0.7V74
			c-0.5,0.2-1,0.4-1.5,0.6c-0.4,0.2-1,0.4-1.8,0.5c-0.7,0.2-1.4,0.3-2.2,0.4C302.1,75.7,301.2,75.7,300.2,75.7z M302.3,62.1
			c0-1.4-0.4-2.4-1-3.1c-0.6-0.7-1.5-1.1-2.8-1.1c-1.3,0-2.2,0.4-3,1.1c-0.7,0.8-1.1,1.8-1.2,3.1H302.3z M305.2,44.1l-5.6,7.3h-4.4
			l3.8-7.3H305.2z"/>
		<path fill="#B26464" d="M351.8,75.2h-6.9V56.9l-5,11.8h-4.7l-5-11.8v18.3h-6.5V47.5h8l6.1,13.6l6.1-13.6h8V75.2z"/>
		<path fill="#B26464" d="M368.6,73c-0.4,0.4-0.8,0.7-1.2,1s-0.8,0.6-1.4,0.9c-0.6,0.3-1.1,0.5-1.7,0.6c-0.6,0.1-1.3,0.2-2.3,0.2
			c-1.8,0-3.4-0.6-4.6-1.9c-1.2-1.2-1.8-2.8-1.8-4.7c0-1.5,0.3-2.8,0.9-3.7c0.6-1,1.5-1.7,2.7-2.3c1.2-0.6,2.6-1,4.2-1.2
			s3.4-0.4,5.3-0.5v-0.1c0-1.2-0.4-1.9-1.3-2.4c-0.8-0.4-2.1-0.7-3.8-0.7c-0.8,0-1.7,0.1-2.7,0.4c-1,0.3-2,0.6-3,1.1h-0.6v-5
			c0.6-0.2,1.7-0.4,3.1-0.7c1.4-0.3,2.9-0.4,4.3-0.4c3.6,0,6.2,0.6,7.8,1.8c1.6,1.2,2.5,3,2.5,5.5v14.2h-6.5V73z M368.6,69.7v-4.3
			c-1.1,0.1-2,0.2-2.7,0.3c-0.7,0.1-1.3,0.2-2,0.5c-0.6,0.2-1,0.5-1.3,0.9c-0.3,0.4-0.5,0.9-0.5,1.6c0,1,0.3,1.6,0.8,2
			c0.5,0.4,1.3,0.5,2.3,0.5c0.6,0,1.2-0.1,1.7-0.4S368.1,70.2,368.6,69.7z"/>
		<path fill="#B26464" d="M398.8,75.2h-6.5V73c-0.4,0.3-0.9,0.7-1.4,1.1c-0.5,0.4-1,0.7-1.4,0.9c-0.5,0.2-1,0.4-1.5,0.6
			c-0.5,0.1-1.1,0.2-1.8,0.2c-2.4,0-4.3-1-5.6-3c-1.4-2-2.1-4.6-2.1-7.9c0-1.8,0.2-3.4,0.7-4.7c0.5-1.3,1.1-2.5,1.9-3.5
			c0.8-0.9,1.7-1.6,2.7-2.1c1.1-0.5,2.2-0.8,3.4-0.8c1.1,0,2,0.1,2.7,0.3c0.7,0.2,1.5,0.6,2.4,1.1v-8.9h6.5V75.2z M392.3,69.4V59.2
			c-0.3-0.2-0.7-0.3-1.3-0.4c-0.5-0.1-1-0.2-1.3-0.2c-1.6,0-2.7,0.5-3.5,1.6c-0.8,1.1-1.2,2.6-1.2,4.6c0,2.1,0.3,3.5,0.9,4.5
			c0.6,0.9,1.6,1.4,3,1.4c0.6,0,1.1-0.1,1.7-0.3C391.3,70.1,391.8,69.8,392.3,69.4z"/>
		<path fill="#B26464" d="M415.3,73c-0.4,0.4-0.8,0.7-1.2,1c-0.4,0.3-0.8,0.6-1.4,0.9c-0.6,0.3-1.1,0.5-1.7,0.6
			c-0.6,0.1-1.3,0.2-2.3,0.2c-1.8,0-3.4-0.6-4.6-1.9c-1.2-1.2-1.8-2.8-1.8-4.7c0-1.5,0.3-2.8,0.9-3.7c0.6-1,1.5-1.7,2.7-2.3
			c1.2-0.6,2.6-1,4.2-1.2s3.4-0.4,5.3-0.5v-0.1c0-1.2-0.4-1.9-1.3-2.4c-0.8-0.4-2.1-0.7-3.8-0.7c-0.8,0-1.7,0.1-2.7,0.4
			c-1,0.3-2,0.6-3,1.1H404v-5c0.6-0.2,1.7-0.4,3.1-0.7c1.4-0.3,2.9-0.4,4.3-0.4c3.6,0,6.2,0.6,7.8,1.8c1.6,1.2,2.5,3,2.5,5.5v14.2
			h-6.5V73z M415.3,69.7v-4.3c-1.1,0.1-2,0.2-2.7,0.3c-0.7,0.1-1.3,0.2-2,0.5c-0.6,0.2-1,0.5-1.3,0.9c-0.3,0.4-0.5,0.9-0.5,1.6
			c0,1,0.3,1.6,0.8,2c0.5,0.4,1.3,0.5,2.3,0.5c0.6,0,1.2-0.1,1.7-0.4S414.8,70.2,415.3,69.7z"/>
		<path fill="#B26464" d="M445.5,72.8c0,1.9-0.3,3.6-0.8,4.9c-0.6,1.3-1.3,2.4-2.3,3.2c-1,0.8-2.1,1.3-3.5,1.7
			c-1.3,0.3-2.8,0.5-4.5,0.5c-1.4,0-2.7-0.1-3.9-0.3c-1.2-0.2-2.3-0.4-3.2-0.6v-5.2h0.8c0.3,0.1,0.7,0.3,1.1,0.4
			c0.4,0.1,0.9,0.3,1.3,0.4c0.5,0.1,1.1,0.2,1.6,0.3c0.5,0.1,1,0.1,1.6,0.1c1.1,0,2-0.1,2.8-0.3c0.7-0.2,1.3-0.6,1.7-1
			c0.4-0.4,0.6-0.9,0.8-1.5s0.2-1.3,0.2-2.2v-0.4c-0.7,0.6-1.6,1.2-2.5,1.5c-1,0.4-1.9,0.6-3,0.6c-2.7,0-4.8-0.9-6.2-2.6
			c-1.5-1.8-2.2-4.4-2.2-8c0-1.6,0.2-3.1,0.7-4.4c0.5-1.3,1.1-2.4,1.9-3.3c0.8-0.9,1.7-1.6,2.8-2c1.1-0.5,2.2-0.7,3.4-0.7
			c1.1,0,2,0.1,2.9,0.4c0.8,0.3,1.6,0.6,2.3,1.1l0.2-0.9h6.3V72.8z M439,68.6v-9.4c-0.3-0.1-0.7-0.3-1.2-0.4
			c-0.5-0.1-0.9-0.1-1.4-0.1c-1.6,0-2.7,0.5-3.5,1.5c-0.8,1-1.2,2.4-1.2,4.2c0,0.9,0.1,1.7,0.2,2.3c0.1,0.6,0.3,1.2,0.7,1.7
			c0.3,0.5,0.7,0.8,1.2,1.1c0.5,0.2,1.1,0.4,1.9,0.4c0.6,0,1.2-0.1,1.7-0.3C437.9,69.3,438.5,69,439,68.6z"/>
		<path fill="#B26464" d="M461.9,73c-0.4,0.4-0.8,0.7-1.2,1c-0.4,0.3-0.8,0.6-1.4,0.9c-0.6,0.3-1.1,0.5-1.7,0.6
			c-0.6,0.1-1.3,0.2-2.3,0.2c-1.8,0-3.4-0.6-4.6-1.9c-1.2-1.2-1.8-2.8-1.8-4.7c0-1.5,0.3-2.8,0.9-3.7c0.6-1,1.5-1.7,2.7-2.3
			c1.2-0.6,2.6-1,4.2-1.2s3.4-0.4,5.3-0.5v-0.1c0-1.2-0.4-1.9-1.3-2.4c-0.8-0.4-2.1-0.7-3.8-0.7c-0.8,0-1.7,0.1-2.7,0.4
			c-1,0.3-2,0.6-3,1.1h-0.6v-5c0.6-0.2,1.7-0.4,3.1-0.7c1.4-0.3,2.9-0.4,4.3-0.4c3.6,0,6.2,0.6,7.8,1.8c1.6,1.2,2.5,3,2.5,5.5v14.2
			h-6.5V73z M461.9,69.7v-4.3c-1.1,0.1-2,0.2-2.7,0.3c-0.7,0.1-1.3,0.2-2,0.5c-0.6,0.2-1,0.5-1.3,0.9c-0.3,0.4-0.5,0.9-0.5,1.6
			c0,1,0.3,1.6,0.8,2c0.5,0.4,1.3,0.5,2.3,0.5c0.6,0,1.2-0.1,1.7-0.4S461.5,70.2,461.9,69.7z"/>
		<path fill="#B26464" d="M479.5,75.8c-1.5,0-3-0.2-4.4-0.5c-1.4-0.3-2.5-0.7-3.4-1.2v-5.5h0.5c0.3,0.2,0.7,0.5,1.1,0.8
			c0.4,0.3,0.9,0.6,1.7,0.9c0.6,0.3,1.3,0.5,2.1,0.7c0.8,0.2,1.6,0.3,2.5,0.3c0.9,0,1.7-0.1,2.4-0.4c0.7-0.3,1-0.7,1-1.4
			c0-0.5-0.2-0.8-0.5-1.1c-0.3-0.2-0.9-0.5-1.9-0.7c-0.5-0.1-1.1-0.3-1.9-0.4c-0.8-0.1-1.4-0.3-2-0.5c-1.6-0.5-2.9-1.3-3.7-2.3
			c-0.8-1-1.2-2.3-1.2-3.9c0-0.9,0.2-1.8,0.6-2.6c0.4-0.8,1.1-1.6,1.9-2.2c0.8-0.6,1.9-1.1,3.1-1.5c1.2-0.4,2.6-0.6,4.1-0.6
			c1.5,0,2.8,0.1,4,0.4c1.2,0.3,2.3,0.6,3.1,1v5.3h-0.5c-0.2-0.2-0.6-0.4-1.1-0.7c-0.5-0.3-1-0.5-1.4-0.8c-0.5-0.2-1.2-0.5-1.8-0.6
			c-0.7-0.2-1.4-0.2-2.1-0.2c-0.9,0-1.7,0.2-2.4,0.5c-0.7,0.3-1,0.7-1,1.3c0,0.5,0.2,0.8,0.5,1.1c0.3,0.3,1,0.5,2.1,0.8
			c0.6,0.1,1.2,0.3,1.9,0.4c0.7,0.1,1.4,0.3,2.1,0.5c1.5,0.5,2.6,1.2,3.4,2.1c0.8,0.9,1.2,2.2,1.2,3.7c0,1-0.2,1.9-0.7,2.8
			c-0.5,0.9-1.1,1.6-1.9,2.2c-0.9,0.7-1.9,1.2-3.1,1.5C482.7,75.6,481.2,75.8,479.5,75.8z"/>
		<path fill="#B26464" d="M503,75.7c-1.7,0-3.3-0.2-4.7-0.6c-1.4-0.4-2.7-1.1-3.7-2c-1-0.9-1.8-2-2.4-3.4c-0.6-1.4-0.9-3-0.9-4.8
			c0-2,0.3-3.7,0.9-5.1c0.6-1.4,1.5-2.5,2.6-3.5c1-0.9,2.3-1.5,3.7-1.9c1.4-0.4,2.9-0.6,4.4-0.6c1.2,0,2.3,0.1,3.5,0.4
			c1.2,0.3,2.3,0.7,3.5,1.3V61h-0.8c-0.3-0.2-0.6-0.5-1-0.8c-0.4-0.3-0.8-0.6-1.2-0.8c-0.5-0.3-1-0.5-1.6-0.7
			c-0.6-0.2-1.3-0.3-2-0.3c-1.7,0-2.9,0.6-3.8,1.7c-0.9,1.2-1.4,2.7-1.4,4.7c0,2.1,0.5,3.6,1.5,4.7c1,1,2.3,1.5,3.9,1.5
			c0.8,0,1.5-0.1,2.2-0.3c0.6-0.2,1.2-0.4,1.6-0.7c0.4-0.3,0.8-0.5,1.1-0.8c0.3-0.3,0.6-0.5,0.8-0.8h0.8v5.6
			c-0.4,0.2-0.8,0.3-1.3,0.6c-0.5,0.2-1,0.4-1.5,0.5c-0.6,0.2-1.2,0.3-1.8,0.4C504.6,75.7,503.9,75.7,503,75.7z"/>
		<path fill="#B26464" d="M524.3,73c-0.4,0.4-0.8,0.7-1.2,1c-0.4,0.3-0.8,0.6-1.4,0.9c-0.6,0.3-1.1,0.5-1.7,0.6
			c-0.6,0.1-1.3,0.2-2.3,0.2c-1.8,0-3.4-0.6-4.6-1.9c-1.2-1.2-1.8-2.8-1.8-4.7c0-1.5,0.3-2.8,0.9-3.7c0.6-1,1.5-1.7,2.7-2.3
			c1.2-0.6,2.6-1,4.2-1.2s3.4-0.4,5.3-0.5v-0.1c0-1.2-0.4-1.9-1.3-2.4c-0.8-0.4-2.1-0.7-3.8-0.7c-0.8,0-1.7,0.1-2.7,0.4
			c-1,0.3-2,0.6-3,1.1H513v-5c0.6-0.2,1.7-0.4,3.1-0.7c1.4-0.3,2.9-0.4,4.3-0.4c3.6,0,6.2,0.6,7.8,1.8c1.6,1.2,2.5,3,2.5,5.5v14.2
			h-6.5V73z M524.3,69.7v-4.3c-1.1,0.1-2,0.2-2.7,0.3c-0.7,0.1-1.3,0.2-2,0.5c-0.6,0.2-1,0.5-1.3,0.9c-0.3,0.4-0.5,0.9-0.5,1.6
			c0,1,0.3,1.6,0.8,2c0.5,0.4,1.3,0.5,2.3,0.5c0.6,0,1.2-0.1,1.7-0.4S523.8,70.2,524.3,69.7z"/>
		<path fill="#B26464" d="M549.5,60.5H549c-0.2-0.1-0.6-0.2-1.1-0.2c-0.5,0-1-0.1-1.6-0.1c-0.7,0-1.4,0.1-2.1,0.3
			c-0.7,0.2-1.5,0.4-2.2,0.7v14h-6.5V54.3h6.5v3c0.3-0.3,0.7-0.6,1.2-1c0.5-0.4,1-0.7,1.4-1c0.5-0.3,1-0.5,1.6-0.7
			c0.6-0.2,1.2-0.3,1.8-0.3c0.2,0,0.4,0,0.7,0c0.3,0,0.5,0,0.7,0.1V60.5z"/>
	</g>
</g>
</svg>
